<svg width="63" height="63" fill="none" xmlns="http://www.w3.org/2000/svg"><path d="M60.047 23.959v1.267A24.13 24.13 0 0149.24 45.344L38.39 52.53l-3.938 2.607-2.953 1.957-.984-.645-2.953-1.935-1.415-.927-10.61-6.951-1.395-.913-.284-.187A24.129 24.129 0 012.953 25.353v-2.847c0-3.126.892-6.188 2.57-8.826a14.657 14.657 0 0112.368-6.79h.373a14.66 14.66 0 0111.727 5.865l1.509 2.01 1.509-2.01a14.66 14.66 0 0124.39 1.409 19.455 19.455 0 012.648 9.795z" fill="#5D62B5"/><path d="M34.453 46.758v8.379l3.938-2.607v-8.848l-3.938 3.076z" fill="#EA9D2D"/><path d="M44.297 20.672v2.46a2.46 2.46 0 01-2.461 2.462h-2.461V31.5l-.36.986.623.983.48 3.598c.118.88.155 1.77.11 2.657a7.546 7.546 0 01-1.837 4.573l-3.938 2.953v7.887L31.5 57.094l-.984-.645v-7.23l-4.369 4.368-10.61-6.951 8.088-11.199 1.969-2.953 2.578-2.578 1.303-.319.056-1.04v-2.742c0-2.657 1.056-5.205 2.935-7.083a3.428 3.428 0 012.422-1.003h2.13c.88 0 1.722.35 2.343.97l1.983 1.983h2.953z" fill="#FBB540"/><path d="M35.438 20.672h1.968v1.969h-1.968v-1.97z" fill="#985713"/><path d="M39.639 33.469h-1.42a12.837 12.837 0 01-5.709-1.348l-4.338-2.215 1.36-1.36v-.155l3.867 1.973a10.835 10.835 0 004.82 1.136h1.156l.264 1.969z" fill="#5D62B5"/><path d="M31.745 29.531h-2.214v-1.968h2.214a.74.74 0 00.74-.74v-3.198h1.968v3.198a2.711 2.711 0 01-2.708 2.708z" fill="#985713"/><path d="M31.5 35.438v1.968a2.954 2.954 0 01-2.953 2.953v3.581a4.42 4.42 0 01-.745 2.457l-1.224 1.837v2.953l.358.717.298.596.329.656v1.358l-1.415-.927-10.61-6.951-1.395-.913 5.545-8.317v-3.08c0-.076 0-.152.003-.227a6.401 6.401 0 011.55-3.907l1.4-1.645.984 3.937h2.357A2.951 2.951 0 0128.44 33.8a3.681 3.681 0 003.061 1.638z" fill="#E4E4E2"/><path d="M24.61 35.438h1.968v1.968H24.61v-1.968z" fill="#29C3BE"/></svg>