<svg width="174" height="39" fill="none" xmlns="http://www.w3.org/2000/svg"><path d="M50.392 10.988h4.395V28.43h-4.395V10.988zm6.138 10.857c0-4.314 2.696-6.888 6.856-6.888s6.856 2.574 6.856 6.888-2.637 6.902-6.856 6.902c-4.219 0-6.856-2.517-6.856-6.902zm9.302 0c0-2.373-.952-3.768-2.446-3.768-1.494 0-2.432 1.438-2.432 3.768s.923 3.738 2.432 3.738 2.446-1.322 2.446-3.724v-.014zm6.065 7.434h4.22c.2.438.54.8.967 1.034.428.233.92.324 1.406.26 1.67 0 2.549-.891 2.549-2.186v-2.415h-.088a4.11 4.11 0 01-1.632 1.78 4.223 4.223 0 01-2.368.578c-3.208 0-5.332-2.401-5.332-6.528 0-4.128 2.022-6.73 5.391-6.73a4.264 4.264 0 012.425.644 4.147 4.147 0 011.618 1.887V15.2h4.395v13.086c0 3.149-2.827 5.105-7.002 5.105-3.882 0-6.3-1.712-6.549-4.099v-.014zm9.156-7.449c0-2.1-.981-3.422-2.534-3.422s-2.505 1.308-2.505 3.422.937 3.308 2.505 3.308c1.567 0 2.534-1.165 2.534-3.293v-.015zm6.05 0c0-4.314 2.696-6.888 6.856-6.888s6.871 2.574 6.871 6.888-2.637 6.903-6.87 6.903c-4.234 0-6.857-2.503-6.857-6.888v-.015zm9.303 0c0-2.372-.953-3.767-2.447-3.767-1.494 0-2.358 1.452-2.358 3.796s.923 3.739 2.417 3.739c1.494 0 2.388-1.337 2.388-3.739v-.029zm6.094-9.764a2.167 2.167 0 01.346-1.233 2.23 2.23 0 01.986-.835 2.28 2.28 0 012.456.42c.321.301.544.689.64 1.114.097.425.062.87-.099 1.275a2.206 2.206 0 01-.805 1.006 2.27 2.27 0 01-1.239.396c-.294.02-.589-.02-.867-.118a2.136 2.136 0 01-1.247-1.153 2.055 2.055 0 01-.171-.843v-.029zm0 3.164h4.395v13.2H102.5v-13.2zm20.348 6.6c0 4.314-1.949 6.773-5.289 6.773a4.249 4.249 0 01-2.442-.589 4.133 4.133 0 01-1.659-1.855h-.088v6.5h-4.395V15.2h4.395v2.358h.088a4.148 4.148 0 011.626-1.903 4.267 4.267 0 012.446-.642c3.369.058 5.376 2.531 5.376 6.845l-.058-.029zm-4.395 0c0-2.1-.982-3.436-2.52-3.436s-2.519 1.351-2.534 3.436c-.015 2.085.996 3.423 2.534 3.423 1.538 0 2.52-1.309 2.52-3.394v-.029zm11.939-6.902c3.648 0 5.86 1.697 5.962 4.415h-3.999c0-.935-.791-1.525-2.007-1.525-1.216 0-1.758.46-1.758 1.136 0 .676.484.892 1.465 1.093l2.813.561c2.681.56 3.823 1.625 3.823 3.624 0 2.732-2.534 4.486-6.27 4.486-3.735 0-6.182-1.754-6.372-4.443h4.234c.131.978.923 1.553 2.212 1.553 1.289 0 1.875-.417 1.875-1.107s-.41-.834-1.465-1.05l-2.534-.532c-2.623-.532-4-1.898-4-3.912.03-2.588 2.388-4.27 6.021-4.27v-.03zm20.963 13.474h-4.233v-2.46h-.088a3.755 3.755 0 01-1.455 2.049 3.87 3.87 0 01-2.442.698 4.75 4.75 0 01-1.959-.304 4.688 4.688 0 01-1.654-1.075 4.573 4.573 0 01-1.051-1.651 4.5 4.5 0 01-.258-1.93V15.2h4.395v7.535c0 1.568.82 2.402 2.182 2.402a2.264 2.264 0 001.689-.748 2.19 2.19 0 00.461-.813c.093-.3.119-.616.077-.927V15.2h4.395l-.059 13.2zm2.125-13.2h4.248v2.544h.088a3.823 3.823 0 011.427-2.035 3.942 3.942 0 012.396-.754 3.545 3.545 0 012.44.721 3.424 3.424 0 011.296 2.155h.088a4.055 4.055 0 011.564-2.133 4.186 4.186 0 012.567-.743 4.335 4.335 0 011.747.305 4.205 4.205 0 012.406 2.456c.203.552.285 1.14.242 1.725v8.988h-4.395v-7.837c0-1.438-.659-2.1-1.89-2.1a1.924 1.924 0 00-1.453.635 1.868 1.868 0 00-.466 1.493v7.809h-4.175v-7.895c0-1.323-.659-2.042-1.861-2.042a2 2 0 00-.805.17 1.96 1.96 0 00-.663.479 1.908 1.908 0 00-.48 1.508v7.78h-4.395l.074-13.23zM38.101 11.779a19.002 19.002 0 00-2.93-4.63 19.761 19.761 0 00-6.482-5.093 20.153 20.153 0 00-16.224-.667 19.847 19.847 0 00-6.894 4.543 19.406 19.406 0 00-4.393 6.916 19.126 19.126 0 001.225 15.894 19.56 19.56 0 005.403 6.189 19.272 19.272 0 004.688 2.631A19.935 19.935 0 0019.922 39c5.258-.011 10.297-2.069 14.012-5.721 3.716-3.653 5.804-8.602 5.808-13.764a18.952 18.952 0 00-1.64-7.736zM19.907 3.97c2.287 0 4.547.49 6.621 1.438a6.524 6.524 0 01-1.582.445 8.453 8.453 0 00-4.733 2.329 8.185 8.185 0 00-2.372 4.646 4.284 4.284 0 01-1.294 2.598 4.43 4.43 0 01-2.676 1.212 8.453 8.453 0 00-4.733 2.329 8.185 8.185 0 00-2.372 4.645 4.15 4.15 0 01-1.157 2.503 15.284 15.284 0 01.936-14.956 15.706 15.706 0 015.743-5.297 16.055 16.055 0 017.634-1.921l-.015.029zM7.792 29.58c.176-.158.351-.302.527-.474a7.828 7.828 0 002.373-4.645 4.168 4.168 0 011.275-2.617 4.178 4.178 0 012.651-1.237 8.453 8.453 0 004.733-2.328 8.185 8.185 0 002.372-4.646 4.164 4.164 0 011.275-2.747 4.24 4.24 0 012.68-1.193 8.091 8.091 0 004.395-2.057 15.19 15.19 0 013.458 3.998c-.056.074-.12.141-.19.201a4.236 4.236 0 01-2.652 1.266 8.424 8.424 0 00-4.738 2.323 8.156 8.156 0 00-2.367 4.651 4.281 4.281 0 01-1.27 2.617 4.43 4.43 0 01-2.67 1.237 8.498 8.498 0 00-4.753 2.324 8.23 8.23 0 00-2.397 4.65 4.464 4.464 0 01-.717 1.97 15.884 15.884 0 01-3.985-3.293zm12.115 5.55a16.154 16.154 0 01-4.395-.603 8.21 8.21 0 00.938-2.876 4.282 4.282 0 011.264-2.613 4.428 4.428 0 012.662-1.24 8.453 8.453 0 004.741-2.325 8.185 8.185 0 002.378-4.65c.103-.988.55-1.91 1.265-2.613a4.43 4.43 0 012.661-1.241 8.457 8.457 0 003.75-1.438c.618 2.298.691 4.704.214 7.034a15.426 15.426 0 01-2.965 6.407 15.79 15.79 0 01-5.537 4.469 16.094 16.094 0 01-6.976 1.618v.072z" fill="#4B4B4B"/></svg>