<svg width="63" height="63" fill="none" xmlns="http://www.w3.org/2000/svg"><path d="M48.234 54.14v-8.859h5.907V56.11a3.937 3.937 0 01-3.938 3.938h-1.969V54.14z" fill="#F6BB92"/><path d="M52.879 39.375l.948-2.333.84-2.07a6.295 6.295 0 00.349-3.524 6.154 6.154 0 00-1.604-3.127 6.198 6.198 0 01-1.712-4.296v-5.65H27.05v5.65a6.199 6.199 0 01-1.712 4.296 6.153 6.153 0 00-1.604 3.127 6.295 6.295 0 00.348 3.524l.89 2.2 27.907 2.203z" fill="#834B10"/><path d="M54.14 40.441a5.906 5.906 0 00-4.935-5.826l-.97-.162-5.084-.847-3.776 3.8-3.815-3.83-7.013.877v25.594h19.687v-7.875a5.57 5.57 0 00.783-6.89h5.124V40.44z" fill="#5D62B5"/><path d="M52.5 23.625H26.25v-7.412c0-3.604 1.383-7.06 3.844-9.608 2.462-2.548 5.8-3.98 9.281-3.98 3.481 0 6.82 1.432 9.28 3.98 2.462 2.548 3.845 6.004 3.845 9.608v7.412z" fill="#834B10"/><path d="M47.25 16.734v-.984l-.984-4.922H32.484L31.5 15.75v.984a2.953 2.953 0 00-2.953 2.953c0 .784.311 4.697.865 5.25.554.554.274-.16 1.058-.16l-.282.16H31.5c0 1.828 1.71 2.268 3.003 3.56a6.89 6.89 0 009.744 0c1.293-1.292 2.019-1.893 2.019-3.72l.984.16h1.313c.783 0 .221.393.775-.16.554-.555.865-4.306.865-5.09a2.953 2.953 0 00-2.953-2.953z" fill="#F6BB92"/><path d="M38.39 41.165v18.882H16.366a19.004 19.004 0 012.55-3.165l.072-.073a19.512 19.512 0 004.148-6.12c.387-.9.772-1.801 1.052-2.455l.422-.984h-2.832a3.94 3.94 0 01-3.82-2.983l-.484-1.939-.127-.507a1.969 1.969 0 011.91-2.446h3.385a8.41 8.41 0 013.653-4.555l.43-.258a7.68 7.68 0 017.38-.284l.044.023a7.675 7.675 0 014.243 6.864z" fill="#4B4B4B"/><path d="M38.39 41.344v2.793a2.953 2.953 0 11-5.906 0v-4.762h3.938l1.969 1.969zm-9.147 4.634l-1.968 1.968a.985.985 0 01-.697.288h-2.39l.421-.984h-2.832c-.959 0-1.885-.35-2.603-.984h6.997l1.68-1.681a.985.985 0 011.392 1.393zm-8.571-6.603v1.19a1.763 1.763 0 01-1.764 1.763h-1.435l-.127-.507a1.969 1.969 0 011.91-2.446h1.416zm3.053 18.24a.986.986 0 01-.787-1.575 18.164 18.164 0 002.706-5.164.984.984 0 111.868.623 20.133 20.133 0 01-2.999 5.723.983.983 0 01-.788.393z" fill="#000"/><path d="M31.5 16.734a6.712 6.712 0 004.11-3.874l.812-2.032-4.922-.984v6.89zm4.922-5.906l.115.173a12.875 12.875 0 0010.713 5.733v-6.89l-10.828.984z" fill="#834B10"/><path d="M35.355 20.836a1.23 1.23 0 100-2.461 1.23 1.23 0 000 2.46zm5.25 0a1.23 1.23 0 100-2.461 1.23 1.23 0 000 2.46z" fill="#000"/><path d="M45.281 42.328a.984.984 0 01-.984-.984v-6.89a.984.984 0 011.969 0v6.89a.984.984 0 01-.985.984z" fill="#C3C3C3"/><path d="M45.281 47.25a2.953 2.953 0 100-5.906 2.953 2.953 0 000 5.906z" fill="#E4E4E2"/><path d="M45.281 45.281a.984.984 0 100-1.968.984.984 0 000 1.968z" fill="#C3C3C3"/><path d="M49.219 60.047H34.453a2.953 2.953 0 010-5.906h.984a1.969 1.969 0 011.97-1.97h.168c.522 0 1.023.208 1.392.578l1.392 1.392h8.86v5.906zm-32.745-4.57a2.456 2.456 0 001.573 3.375l3.79 1.07a2.954 2.954 0 001.605-5.683l-.947-.267a1.968 1.968 0 00-1.359-2.43l-.163-.046a1.97 1.97 0 00-1.496.176 5.975 5.975 0 00-2.529 2.755l-.474 1.05z" fill="#F6BB92"/><path d="M11.45 23.625c.941 0 1.845.434 2.51 1.206l1.79 2.075 1.789-2.075c.666-.772 1.57-1.206 2.51-1.206.793 0 1.562.307 2.187.872.624.566 1.067 1.357 1.26 2.248a5.796 5.796 0 01-.163 3.037c-.323.969-.896 1.798-1.641 2.374L15.75 36.75l-5.942-4.594c-.745-.576-1.318-1.405-1.64-2.374a5.796 5.796 0 01-.163-3.037c.192-.891.635-1.682 1.26-2.248.623-.565 1.393-.872 2.185-.872z" fill="#5D62B5"/><path d="M31.5 16.734h.984v5.907H31.5v-5.907zm14.766 0h.984v5.907h-.984v-5.907z" fill="#EEB58E"/><path d="M35.56 33.577l3.816 3.83 3.775-3.801a.984.984 0 01-.822-.971V29.53h-5.907v3.07a.984.984 0 01-.862.977z" fill="#F6BB92"/><path d="M39.375 31.5c-2.785 0-5.456-.968-7.425-2.691-1.969-1.723-3.075-4.06-3.075-6.497V21h21v1.313c0 2.436-1.106 4.773-3.075 6.496-1.97 1.723-4.64 2.691-7.425 2.691z" fill="#5D62B5"/><path d="M27.563 41.344a.984.984 0 100-1.969.984.984 0 000 1.969z" fill="#000"/></svg>