<svg width="63" height="63" fill="none" xmlns="http://www.w3.org/2000/svg"><g clip-path="url(#clip0)"><path d="M0 47.517v13.881h4.271v-2.135a4.271 4.271 0 014.271-4.272h34.17a4.271 4.271 0 014.271 4.272v2.135h4.271V47.517H0z" fill="#D9C2A0"/><path d="M46.983 18.686a3.204 3.204 0 01-3.203-3.203l1.068-2.136h4.27l1.069 2.136a3.204 3.204 0 01-3.204 3.203z" fill="#F7BA61"/><path d="M40.576 15.483l4.271-5.339 1.068-1.068h2.136l1.067 1.068 4.272 5.34H40.576z" fill="#E4E4E2"/><path d="M58.729 62.466c-.59 0-1.068-.478-1.068-1.068V5.873a3.204 3.204 0 00-3.204-3.203h-3.203a3.204 3.204 0 00-3.203 3.203 1.068 1.068 0 01-2.136 0 5.345 5.345 0 015.339-5.34h3.203a5.345 5.345 0 015.34 5.34v55.525c0 .59-.479 1.068-1.068 1.068z" fill="#C3C3C3"/><path d="M6.406 22.957h38.441a4.271 4.271 0 014.271 4.272v10.678H2.135V27.229a4.271 4.271 0 014.271-4.271z" fill="#D9C2A0"/><path d="M2.135 35.771h46.983v3.203H2.135v-3.203z" fill="#C1AC8E"/><path d="M51.254 48.585H0v-8.543c0-1.179.956-2.135 2.136-2.135h46.983c1.179 0 2.135.956 2.135 2.135v8.543z" fill="#5D62B5"/><path d="M10.678 29.364h8.542a4.271 4.271 0 010 8.543h-8.542a4.271 4.271 0 010-8.543zm21.356 0h8.542a4.271 4.271 0 010 8.543h-8.542a4.271 4.271 0 010-8.543z" fill="#50559F"/><path d="M44.848 5.873h4.27v4.271h-4.27V5.873z" fill="#DBDBDB"/><path d="M61.933 62.466h-6.407a1.068 1.068 0 010-2.135h6.407a1.068 1.068 0 010 2.135z" fill="#B9B9B9"/><path d="M19.22 29.364h-8.542a4.271 4.271 0 00-4.271 4.271H23.49a4.271 4.271 0 00-4.27-4.27zm21.356 0h-8.542a4.271 4.271 0 00-4.271 4.271h17.084a4.271 4.271 0 00-4.27-4.27z" fill="#5D62B5"/></g><defs><clipPath id="clip0"><path fill="#fff" d="M0 0h63v63H0z"/></clipPath></defs></svg>