<svg width="63" height="63" fill="none" xmlns="http://www.w3.org/2000/svg"><path d="M43.51 37.406v9.844l.984 3.938 2.953.984-.984 3.937H41.54l-1.969-8.859v-5.906l3.938-3.938zM15.75 55.125h-4.832a5.4 5.4 0 01-4.83-2.985 29.675 29.675 0 01-2.953-16.56l.016-.144a10.785 10.785 0 014.01 2.794 10.795 10.795 0 012.368 4.272 4.245 4.245 0 002.181 2.628l.3.15 1.97 6.89.59.985 1.18 1.969z" fill="#DBDBDB"/><path d="M14.57 53.156h-2.668a5.4 5.4 0 01-4.83-2.985A29.683 29.683 0 013.959 35.8a10.796 10.796 0 015.57 6.704 4.245 4.245 0 002.182 2.628l.3.15 1.97 6.89.59.985z" fill="#EAEAE8"/><path d="M55.323 9.844v4.922l-2.953 1.968-3.015.603-1.907.382-.271.947-1.102 3.859-.271.947a5.065 5.065 0 00-.182.987 5.252 5.252 0 00.051 1.317 16.403 16.403 0 01-1.103 9.156l-1.06 2.474-3.937 3.938v5.906l.866 3.898 3.071 1.024-.984 3.937h-4.922l-2.953-10.828-1.693 1.693a19.548 19.548 0 01-5.084 3.665l-1.098.548h1.072a2.867 2.867 0 012.865 2.866v2.056h-14.03a2.703 2.703 0 01-2.704-2.703v-1.234l-1.969-6.89 1.18-4.33a19.638 19.638 0 017.163-10.541l6.837-5.129a18.659 18.659 0 005.492-6.579l1.969-1.969.311-.932V15.8l2.642-7.925 4.922-1.969h4.922l1.968 3.938h5.907z" fill="#EAEAE8"/><path d="M45.478 11.813a.984.984 0 100-1.97.984.984 0 000 1.97z" fill="#8F563B"/><path d="M30.009 52.172h-6.064a.984.984 0 110-1.969 3.576 3.576 0 003.216-1.987c.356-.716.465-1.53.31-2.315a6.032 6.032 0 00-3.234-4.235l-.854-.425a.985.985 0 01.88-1.763l.853.427a7.986 7.986 0 014.286 5.611 5.59 5.59 0 01-1.207 4.687l-1.419.985h1.072a2.857 2.857 0 012.16.984z" fill="#DBDBDB"/><path d="M52.37 9.844a2.953 2.953 0 002.952 2.953V9.844H52.37z" fill="#8F563B"/><path d="M49.356 17.337l-1.907.382-.271.947-2.994-.998a.984.984 0 01-.673-.934v-1.968a.984.984 0 011.969 0v1.258l3.699 1.233c.061.02.12.048.177.08z" fill="#DBDBDB"/><path d="M46.788 23.454a.985.985 0 01-.966 1.002l-.2.003-.505.01a12.075 12.075 0 01-11.212-6.99l.746-.744.311-.933a.58.58 0 01.06.022c.024.009.047.02.07.032a.861.861 0 01.105.06.981.981 0 01.358.43A10.12 10.12 0 0045.08 22.5l.706-.012a.99.99 0 011.003.966z" fill="#5D62B5"/><path d="M49.417 24.61a1.968 1.968 0 11-3.935-.003 1.968 1.968 0 013.935.002z" fill="#F3AF3E"/><path d="M48.234 24.61a1.969 1.969 0 01-1.377 1.877 1.969 1.969 0 010-3.755 1.969 1.969 0 011.377 1.877z" fill="#EA9D2D"/><path d="M56.11 56.11a3.938 3.938 0 100-7.876 3.938 3.938 0 000 7.875z" fill="#5D62B5"/><path d="M60.047 52.172a3.937 3.937 0 01-3.938 3.937 8.807 8.807 0 000-7.875 3.937 3.937 0 013.938 3.938z" fill="#29C3BE"/><path d="M41.542 11.813v3.341a3.942 3.942 0 01-4.262 3.926 3.925 3.925 0 01-1.86-.65l-1.315-.876a.98.98 0 01-.15-.123l.697-.697.31-.932a.612.612 0 01.13.054.861.861 0 01.105.06l1.315.876a1.97 1.97 0 003.061-1.638v-3.341a.984.984 0 111.97 0z" fill="#C3C3C3"/></svg>