<svg width="63" height="63" fill="none" xmlns="http://www.w3.org/2000/svg"><path d="M56.995 29.531a4.92 4.92 0 00-5.531-5.854 2.952 2.952 0 00-3.34-.826 6.886 6.886 0 00-5.963-3.16 2.952 2.952 0 00-4.487-1.432 8.852 8.852 0 00-12.348 0 2.952 2.952 0 00-4.487 1.433 6.885 6.885 0 00-5.963 3.16 2.952 2.952 0 00-3.34.825 4.925 4.925 0 00-5.531 5.854l1.87.985h48.234l.886-.985z" fill="#A45E14"/><path d="M60.047 49.219H2.953V45.28l1.969-.984h54.14l.985.984v3.938z" fill="#50559F"/><path d="M60.047 45.281H2.953l2.953-15.75h51.188l2.953 15.75z" fill="#5D62B5"/><path d="M39.781 37.406a2.153 2.153 0 10-3.35-1.969h-9.678a2.153 2.153 0 10-3.35 1.97 2.153 2.153 0 103.35 1.968h9.678a2.15 2.15 0 002.204 1.966 2.152 2.152 0 001.146-3.935z" fill="#29C3BE"/><path d="M23.625 23.625a2.953 2.953 0 100-5.906 2.953 2.953 0 000 5.906z" fill="#62B58F"/><path d="M27.563 25.594a2.953 2.953 0 100-5.906 2.953 2.953 0 000 5.906zm-13.782 2.953a2.953 2.953 0 100-5.906 2.953 2.953 0 000 5.906z" fill="#F2726F"/><path d="M49.219 28.547a2.953 2.953 0 100-5.906 2.953 2.953 0 000 5.906z" fill="#62B58F"/><path d="M39.375 23.625a2.953 2.953 0 100-5.906 2.953 2.953 0 000 5.906z" fill="#F2726F"/></svg>