<svg width="63" height="63" fill="none" xmlns="http://www.w3.org/2000/svg"><path d="M27.563 21.656l-5.907 5.907a7.121 7.121 0 01-3.937-6.371v-2.489h5.906l3.938 2.953z" fill="#F3AF3E"/><path d="M25.594 24.61l-2.461 1.476-1.989 1.192a7.121 7.121 0 01-3.41-5.622h4.996l2.379 2.454.485.5z" fill="#5B3726"/><path d="M45.281 18.703v2.488a7.129 7.129 0 01-3.937 6.371l-5.907-5.906 3.938-2.953h5.906z" fill="#F3AF3E"/><path d="M45.267 21.656a7.123 7.123 0 01-3.025 5.371l-2.867-1.433-1.969-.985.485-.5 2.379-2.453h4.996z" fill="#5B3726"/><path d="M42.328 29.531v12.797H20.672V29.531a10.828 10.828 0 0121.656 0z" fill="#F3AF3E"/><path d="M44.297 3.938l-.984 3.937 10.828 6.89v26.579h3.937V12.797L45.281 4.266l-.984-.329z" fill="#B9B9B9"/><path d="M58.078 44.297v5.906a9.844 9.844 0 01-9.844 9.844H14.766a9.844 9.844 0 01-9.844-9.844v-5.906h53.156z" fill="#5D62B5"/><path d="M58.078 40.36H4.922a1.969 1.969 0 100 3.937h53.156a1.969 1.969 0 000-3.938z" fill="#5D62B5"/><path d="M42.671 11.057l-4.403-6.529 2.76-1.26a3.486 3.486 0 013.846 5.702l-2.203 2.087z" fill="#CBCBCB"/><path d="M26.269 25.66l2.954-.984.622 1.868-2.954.984-.622-1.869zm6.888.852l.622-1.869 2.954.984-.622 1.868-2.954-.983z" fill="#D18D28"/><path d="M37.63 33.26l-.88-1.76c-.78.387-3.43 2.537-4.265 2.288V31.5h-1.97v2.289c-.834.249-3.485-1.902-4.265-2.289l-.88 1.76c.675.337 3.167 2.601 3.921 2.634a5.402 5.402 0 002.21-.367 5.41 5.41 0 002.209.367c.754-.033 3.245-2.297 3.92-2.633z" fill="#744630"/><path d="M23.625 39.375c0 .346-.09.685-.263.984h-2.69v-3.937a2.953 2.953 0 012.953 2.953zm18.703-2.953v3.937h-2.69a1.959 1.959 0 01-.263-.984 2.953 2.953 0 012.953-2.953z" fill="#D18D28"/><path d="M28.547 16.735h-1.969a9.65 9.65 0 01.576-3.288l1.851.669a7.686 7.686 0 00-.458 2.619zm1.354-4.365l-1.623-1.115a9.612 9.612 0 012.998-2.819l.702-.42 1.013 1.688-.702.42a7.655 7.655 0 00-2.388 2.246zm3.568 4.365H31.5a9.65 9.65 0 01.575-3.288l1.852.669a7.686 7.686 0 00-.458 2.619zm1.354-4.365L33.2 11.255a9.612 9.612 0 012.998-2.819l.702-.42 1.013 1.688-.702.42a7.655 7.655 0 00-2.388 2.246zm3.567 4.365h-1.968c0-1.121.194-2.234.575-3.288l1.852.669a7.681 7.681 0 00-.458 2.619z" fill="#C0F5F9"/><path d="M9.844 36.422a3.937 3.937 0 100-7.875 3.937 3.937 0 000 7.875z" fill="#B3E4E8"/><path d="M5.906 25.594a2.953 2.953 0 100-5.907 2.953 2.953 0 000 5.907zm42.328 7.875a1.969 1.969 0 100-3.938 1.969 1.969 0 000 3.938z" fill="#C0F5F9"/><path d="M31.5 50.818c.348 0 .682-.125.928-.348.246-.223.385-.526.385-.841v-1.19c0-.315-.139-.618-.385-.84a1.384 1.384 0 00-.928-.349c-.348 0-.682.125-.928.348a1.136 1.136 0 00-.384.842v1.189c0 .315.138.618.384.841.246.223.58.348.928.348zm-2.625 1.19v-1.19c0-.315-.138-.618-.384-.84a1.384 1.384 0 00-.928-.35c-.349 0-.682.126-.929.35a1.136 1.136 0 00-.384.84v1.19c0 .315.138.618.384.84.247.224.58.35.928.35.349 0 .682-.126.929-.35.246-.222.384-.525.384-.84zm6.563-2.379c-.349 0-.682.125-.929.348a1.136 1.136 0 00-.384.841v1.19c0 .315.138.618.384.84.247.224.58.35.928.35.349 0 .682-.126.929-.35.246-.222.384-.525.384-.84v-1.19c0-.315-.138-.618-.384-.84a1.384 1.384 0 00-.928-.35zm-1.313 4.758h-1.313v-1.19c0-.315-.138-.618-.384-.84a1.384 1.384 0 00-.928-.35c-.348 0-.682.126-.928.35a1.136 1.136 0 00-.384.84v1.19h-1.313c-.348 0-.682.125-.928.348a1.136 1.136 0 00-.384.841c0 .316.138.618.384.841.246.223.58.349.928.349h5.25c.348 0 .682-.126.928-.349.246-.223.385-.525.385-.84 0-.316-.139-.619-.385-.842a1.384 1.384 0 00-.928-.348z" fill="#29C3BE"/><path d="M20.672 41.344h-1.969a1.969 1.969 0 01-1.969-1.969 2.953 2.953 0 115.907 0 1.969 1.969 0 01-1.97 1.969zm23.625 0h-1.969a1.969 1.969 0 01-1.969-1.969 2.953 2.953 0 115.907 0 1.969 1.969 0 01-1.97 1.969z" fill="#F3AF3E"/><path d="M31.5 32.484a1.968 1.968 0 01-1.969-1.968v-1.97h3.938v1.97a1.969 1.969 0 01-1.969 1.968z" fill="#5B3726"/><path d="M4.922 44.297h53.156v1.969H4.922v-1.97z" fill="#50559F"/><path d="M34.45 5.918l3.264-2.201 5.503 8.16-3.265 2.201-5.502-8.16z" fill="#B9B9B9"/></svg>