<svg width="63" height="63" fill="none" xmlns="http://www.w3.org/2000/svg"><path d="M36.75 39.692h-10.5l1.32-1.038a4.702 4.702 0 001.305-5.842l-.157-.367 1.634-.493h2.57l1.36.494-.157.366a4.702 4.702 0 001.306 5.84l1.319 1.04z" fill="#FBB540"/><path d="M36.75 43.991h-10.5v-4.3l.875-.322h8.75l.875.323v4.3z" fill="#FBB540"/><path d="M30.352 31.952l-1.633.494.157.366c.353.699.525 1.472.501 2.252a7.303 7.303 0 004.253-.184 4.668 4.668 0 01.496-2.068l.157-.367-1.36-.493h-2.571zm-4.102 9.46h10.5v3.44h-10.5v-3.44z" fill="#EA9D2D"/><path d="M26.25 39.375h10.5v10.5h-10.5v-10.5z" fill="#5D62B5"/><path d="M26.25 42h10.5v2.625h-10.5V42zm0 5.25h10.5v2.625h-10.5V47.25z" fill="#50559F"/><path d="M18.375 47.25h26.25v10.5h-26.25v-10.5z" fill="#5D62B5"/><path d="M19.732 50.01h1.81v7.74h-1.81v-7.74zm3.622 0h1.81v7.74h-1.81v-7.74zm14.483 0h1.81v7.74h-1.81v-7.74zm3.619 0h1.81v7.74h-1.81v-7.74z" fill="#50559F"/><path d="M19.732 11.315h24.44v3.44h-24.44v-3.44z" fill="#FBB540"/><path d="M41.456 25.073v-3.44h1.81c3.498-.003 6.333-2.696 6.337-6.019v-.86H42.36v-3.44h9.052c1 0 1.81.77 1.81 1.72v2.58c-.006 5.221-4.46 9.453-9.957 9.46h-1.81zm-19.913 0v-3.44h-1.81c-3.498-.003-6.333-2.696-6.336-6.019v-.86h7.24v-3.44h-9.05c-1 0-1.811.77-1.811 1.72v2.58c.006 5.221 4.46 9.453 9.957 9.46h1.81z" fill="#FBB540"/><path d="M20.639 7.875h21.724v14.619c0 5.698-4.863 10.319-10.862 10.319-6 0-10.862-4.62-10.862-10.32V7.876z" fill="#FBB540"/><path d="M20.639 7.875h21.724v5.16H20.639v-5.16z" fill="#FBB540"/><path d="M23.625 13.125h15.75v2.625h-15.75v-2.625z" fill="#EA9D2D"/></svg>