<svg width="174" height="41" fill="none" xmlns="http://www.w3.org/2000/svg"><path d="M50.392 11.551h4.395V29.89h-4.395V11.55zm6.138 11.414c0-4.535 2.696-7.241 6.856-7.241s6.856 2.706 6.856 7.241-2.637 7.256-6.856 7.256c-4.219 0-6.856-2.645-6.856-7.256zm9.302 0c0-2.494-.952-3.96-2.446-3.96-1.494 0-2.432 1.51-2.432 3.96 0 2.449.923 3.93 2.432 3.93s2.446-1.39 2.446-3.915v-.015zm6.065 7.816h4.22c.2.46.54.841.967 1.086.428.245.92.341 1.406.274 1.67 0 2.549-.937 2.549-2.298v-2.54h-.088a4.25 4.25 0 01-1.632 1.873 4.06 4.06 0 01-2.368.607c-3.208 0-5.332-2.525-5.332-6.863 0-4.34 2.022-7.075 5.391-7.075a4.106 4.106 0 012.425.677 4.308 4.308 0 011.618 1.983v-2.524h4.395v13.757c0 3.31-2.827 5.366-7.002 5.366-3.882 0-6.3-1.799-6.549-4.308v-.015zm9.156-7.831c0-2.207-.981-3.598-2.534-3.598s-2.505 1.376-2.505 3.598.937 3.477 2.505 3.477c1.567 0 2.534-1.225 2.534-3.462v-.015zm6.05 0c0-4.535 2.696-7.241 6.856-7.241s6.871 2.706 6.871 7.24c0 4.536-2.637 7.257-6.87 7.257-4.234 0-6.857-2.63-6.857-7.241v-.015zm9.303 0c0-2.494-.953-3.96-2.447-3.96-1.494 0-2.358 1.526-2.358 3.99 0 2.464.923 3.93 2.417 3.93 1.494 0 2.388-1.405 2.388-3.93v-.03zm6.094-10.265a2.367 2.367 0 01.346-1.296c.237-.387.581-.693.986-.878a2.179 2.179 0 011.293-.164c.438.078.843.29 1.163.606.321.316.544.724.64 1.17.097.448.062.914-.099 1.341a2.302 2.302 0 01-.805 1.057 2.196 2.196 0 01-1.239.417 2.08 2.08 0 01-.867-.124 2.118 2.118 0 01-.746-.472 2.21 2.21 0 01-.501-.74 2.256 2.256 0 01-.171-.887v-.03zm0 3.326h4.395v13.878H102.5V16.01zm20.348 6.939c0 4.535-1.949 7.12-5.289 7.12a4.086 4.086 0 01-2.442-.619 4.28 4.28 0 01-1.659-1.95h-.088v6.832h-4.395V15.981h4.395v2.479h.088a4.31 4.31 0 011.626-2.001 4.109 4.109 0 012.446-.675c3.369.06 5.376 2.66 5.376 7.196l-.058-.03zm-4.395 0c0-2.207-.982-3.613-2.52-3.613s-2.519 1.42-2.534 3.613c-.015 2.192.996 3.598 2.534 3.598 1.538 0 2.52-1.376 2.52-3.568v-.03zm11.939-7.256c3.648 0 5.86 1.783 5.962 4.64h-3.999c0-.982-.791-1.602-2.007-1.602-1.216 0-1.758.484-1.758 1.194s.484.938 1.465 1.15l2.813.589c2.681.59 3.823 1.708 3.823 3.81 0 2.872-2.534 4.716-6.27 4.716-3.735 0-6.182-1.844-6.372-4.671h4.234c.131 1.028.923 1.633 2.212 1.633 1.289 0 1.875-.439 1.875-1.165 0-.725-.41-.876-1.465-1.103l-2.534-.56c-2.623-.559-4-1.995-4-4.111.03-2.721 2.388-4.49 6.021-4.49v-.03zm20.963 14.164h-4.233v-2.585h-.088a3.949 3.949 0 01-1.455 2.153 3.74 3.74 0 01-2.442.735 4.54 4.54 0 01-1.959-.32 4.67 4.67 0 01-1.654-1.13 4.846 4.846 0 01-1.051-1.736 4.956 4.956 0 01-.258-2.03v-8.964h4.395v7.921c0 1.648.82 2.525 2.182 2.525a2.202 2.202 0 001.689-.787c.211-.247.368-.538.461-.854.093-.315.119-.648.077-.975v-7.83h4.395l-.059 13.877zm2.125-13.877h4.248v2.676h.088a4.024 4.024 0 011.427-2.14 3.812 3.812 0 012.396-.793 3.425 3.425 0 012.44.758 3.635 3.635 0 011.296 2.265h.088a4.256 4.256 0 011.564-2.241 4.04 4.04 0 012.567-.782 4.146 4.146 0 011.747.32 4.264 4.264 0 011.469 1.027c.414.445.733.975.937 1.555a4.54 4.54 0 01.242 1.814v9.449h-4.395v-8.24c0-1.511-.659-2.206-1.89-2.206a1.871 1.871 0 00-.797.17 1.93 1.93 0 00-.656.497 1.992 1.992 0 00-.398.733 2.04 2.04 0 00-.068.837v8.209h-4.175v-8.3c0-1.39-.659-2.146-1.861-2.146-.277 0-.551.06-.805.178-.253.118-.479.29-.663.503a2.049 2.049 0 00-.405.74 2.103 2.103 0 00-.075.846v8.179h-4.395l.074-13.908z" fill="#fff"/><path d="M38.101 12.383a20.145 20.145 0 00-2.93-4.868 19.945 19.945 0 00-6.482-5.354 19.335 19.335 0 00-8.04-2.143c-2.796-.12-5.585.37-8.184 1.443a19.796 19.796 0 00-6.894 4.775 20.563 20.563 0 00-4.393 7.271 21.058 21.058 0 00-1.122 8.49 20.94 20.94 0 002.347 8.219 20.292 20.292 0 005.403 6.506 19.036 19.036 0 004.688 2.766c2.357.997 4.88 1.51 7.428 1.512 5.258-.012 10.297-2.175 14.012-6.015 3.716-3.84 5.804-9.043 5.808-14.469a20.797 20.797 0 00-1.64-8.133zM19.907 4.174c2.287 0 4.547.516 6.621 1.512a6.28 6.28 0 01-1.582.469 8.302 8.302 0 00-4.733 2.447 8.767 8.767 0 00-2.372 4.884 4.592 4.592 0 01-1.294 2.732 4.336 4.336 0 01-2.676 1.274 8.302 8.302 0 00-4.733 2.448 8.767 8.767 0 00-2.372 4.884 4.464 4.464 0 01-1.157 2.63 16.778 16.778 0 01-1.49-7.985 16.69 16.69 0 012.426-7.737 16.037 16.037 0 015.743-5.569 15.438 15.438 0 017.634-2.02l-.015.031zM7.792 31.098c.176-.166.351-.317.527-.499a8.383 8.383 0 002.373-4.883 4.472 4.472 0 011.275-2.751 4.095 4.095 0 012.651-1.3 8.301 8.301 0 004.733-2.448 8.767 8.767 0 002.372-4.884 4.477 4.477 0 011.275-2.887 4.148 4.148 0 012.68-1.255 7.928 7.928 0 004.395-2.162 15.77 15.77 0 013.458 4.203c-.056.077-.12.148-.19.211a4.155 4.155 0 01-2.652 1.33 8.272 8.272 0 00-4.738 2.443 8.737 8.737 0 00-2.367 4.89 4.596 4.596 0 01-1.27 2.75 4.34 4.34 0 01-2.67 1.301 8.343 8.343 0 00-4.753 2.444 8.81 8.81 0 00-2.397 4.888 4.845 4.845 0 01-.717 2.071 16.086 16.086 0 01-3.985-3.462zm12.115 5.835a15.42 15.42 0 01-4.395-.635c.489-.94.807-1.965.938-3.023a4.596 4.596 0 011.264-2.746 4.34 4.34 0 012.662-1.305 8.3 8.3 0 004.741-2.444 8.766 8.766 0 002.378-4.888 4.597 4.597 0 011.265-2.747 4.341 4.341 0 012.661-1.305 8.216 8.216 0 003.75-1.512c.618 2.416.691 4.946.214 7.395a16.607 16.607 0 01-2.965 6.735 15.969 15.969 0 01-5.537 4.699 15.452 15.452 0 01-6.976 1.7v.076z" fill="#F2726F"/></svg>