<svg width="63" height="63" fill="none" xmlns="http://www.w3.org/2000/svg"><path d="M58.384 5.25H4.616c-1.1 0-1.991.895-1.991 2v38c0 1.105.892 2 1.991 2h53.768c1.1 0 1.991-.895 1.991-2v-38c0-1.105-.892-2-1.991-2z" fill="#5D62B5"/><path d="M27.563 24.281l-5.907 5.907a7.121 7.121 0 01-3.937-6.371v-2.489h5.906l3.938 2.953z" fill="#F3AF3E"/><path d="M25.594 27.234l-2.461 1.477-1.989 1.192a7.121 7.121 0 01-3.41-5.622h4.996l2.379 2.454.485.5z" fill="#5B3726"/><path d="M45.281 21.328v2.488a7.129 7.129 0 01-3.937 6.371l-5.907-5.906 3.938-2.953h5.906z" fill="#F3AF3E"/><path d="M45.267 24.281a7.123 7.123 0 01-3.025 5.371l-2.867-1.433-1.969-.985.485-.5 2.379-2.453h4.996z" fill="#5B3726"/><path d="M42.328 32.156v12.797H20.672V32.156a10.828 10.828 0 0121.656 0z" fill="#F3AF3E"/><path d="M26.269 28.284l2.954-.983.622 1.868-2.954.984-.622-1.869zm6.888.853l.622-1.869 2.954.984-.622 1.868-2.954-.983z" fill="#D18D28"/><path d="M37.63 35.886l-.88-1.761c-.78.388-3.43 2.537-4.265 2.288v-2.288h-1.969v2.289c-.834.249-3.486-1.902-4.266-2.289l-.88 1.76c.675.337 3.167 2.601 3.921 2.634a5.401 5.401 0 002.21-.367c.702.275 1.455.4 2.21.367.753-.033 3.244-2.297 3.92-2.633z" fill="#744630"/><path d="M23.625 42c0 .346-.09.685-.263.984h-2.69v-3.937A2.953 2.953 0 0123.625 42zm18.703-2.953v3.937h-2.69a1.959 1.959 0 01-.263-.984 2.953 2.953 0 012.953-2.953z" fill="#D18D28"/><path d="M20.672 43.969h-1.969A1.969 1.969 0 0116.734 42a2.953 2.953 0 115.907 0 1.969 1.969 0 01-1.97 1.969zm23.625 0h-1.969A1.969 1.969 0 0140.36 42a2.953 2.953 0 115.907 0 1.969 1.969 0 01-1.97 1.969z" fill="#F3AF3E"/><path d="M31.5 35.11a1.968 1.968 0 01-1.969-1.97v-1.968h3.938v1.969a1.969 1.969 0 01-1.969 1.968z" fill="#5B3726"/><path d="M40.36 53.484H22.64l.17-.168a9.516 9.516 0 002.784-6.722h11.812a9.507 9.507 0 002.785 6.722l.168.168z" fill="#D9D9D9"/><path d="M58.384 47.25H4.616a1.94 1.94 0 01-1.408-.615 2.16 2.16 0 01-.583-1.485V42h57.75v3.15a2.16 2.16 0 01-.583 1.485 1.94 1.94 0 01-1.408.615zM22.64 53.484h17.72a1.969 1.969 0 011.968 1.97v1.968H20.672v-1.969a1.969 1.969 0 011.969-1.969z" fill="#E4E4E2"/><path d="M37.613 48.563H25.387a9.46 9.46 0 00.206-1.97h11.813c0 .662.07 1.322.207 1.97z" fill="#A8A8A8"/><circle cx="55.125" cy="10.5" r="2.625" fill="#62B58F"/></svg>